PathFileType	4	(X/Y/Z)	T1_P2_NoVision_Movement_3_0-732.trc
DataRate	CameraRate	NumFrames	NumMarkers	Units	OrigDataRate	OrigDataStartFrame	OrigNumFrames
60	60	4	27	m	60	549	732
Frame#	Time	RHip			RKnee			RAnkle			RBigToe			RSmallToe			RHeel			LHip			LKnee			LAnkle			LBigToe			LSmallToe			LHeel			Neck			Head			Nose			RShoulder			RElbow			RWrist			RThumb			RIndex			RPinky			LShoulder			LElbow			LWrist			LThumb			LIndex			LPinky		
		X1	Y1	Z1	X2	Y2	Z2	X3	Y3	Z3	X4	Y4	Z4	X5	Y5	Z5	X6	Y6	Z6	X7	Y7	Z7	X8	Y8	Z8	X9	Y9	Z9	X10	Y10	Z10	X11	Y11	Z11	X12	Y12	Z12	X13	Y13	Z13	X14	Y14	Z14	X15	Y15	Z15	X16	Y16	Z16	X17	Y17	Z17	X18	Y18	Z18	X19	Y19	Z19	X20	Y20	Z20	X21	Y21	Z21	X22	Y22	Z22	X23	Y23	Z23	X24	Y24	Z24	X25	Y25	Z25	X26	Y26	Z26	X27	Y27	Z27
550	9.166666666666666	463.167410096042	3656.398254999925	551.8530982932346	881.9337975737335	3708.3788724857113	565.059229372304	1222.509655276747	3695.876918588384	611.9669617922636	1320.6527304158146	3622.65543874734	609.2845953677842	1297.123898137038	3631.5600074187228	545.6682739160401	1255.7081816548316	3685.1094812025244	623.0456282953216	468.5517407319526	3539.8861362358384	746.3815454774174	882.5640385068166	3559.9215115256047	738.0587202939497	1206.69092765449	3583.684049457705	718.1143747657153	1328.8691936442297	3572.7670733979503	682.7233540935135	1274.1908386073383	3479.891621293017	708.0856507732832	1261.1553800440502	3613.8685770878437	719.2005642421026	-127.68387354833001	3542.97357601514	639.2504868195651	-374.1107880326962	3505.718398610902	624.3371983408748	-240.3659572668126	3452.466106174323	585.8636286196904	-44.65326364554067	3695.901364080322	543.6393918437501	201.29402047978553	3749.4320490853074	478.4067138004929	441.5423744935857	3708.39760578254	425.24824313120115	555.1718722801438	3607.8974726361153	423.3444888035892	597.2724547475665	3668.8517035374766	418.4375475683658	590.7334859805878	3692.3909236312484	406.73742066616745	-22.774900284475954	3550.8819681048385	833.0069172850584	237.35190598343704	3456.7745608059795	842.2067857812327	482.6814012895563	3438.414972237777	832.2655146453712	580.362836373037	3428.533714943029	765.1157179292892	603.9789594191041	3434.704301681254	807.1917642239707	605.3128449173342	3421.684019826158	829.6721830493685
551	9.183333333333334	463.0872426377212	3656.182669087116	551.7118342938348	886.7277300176108	3710.808107151298	566.4487183064768	1234.8118565739574	3701.8315622603604	614.4793982692487	1326.5488926009737	3624.5162009801306	611.2745044613997	1302.7255707841628	3633.5799637456234	547.4746959470909	1259.9317820417407	3691.3811679176256	630.1182643666804	468.5496811882747	3539.8090938028063	746.3606237676694	874.5305873741552	3563.184907515485	739.2729250568832	1210.7954229600023	3592.3704622958203	721.7367912679855	1321.5672740165955	3552.812825299411	677.1201866384068	1266.9387892156528	3459.973762968291	702.1903923787303	1266.830131715928	3617.787443884831	720.468419502708	-127.57363358342486	3542.9373582309604	639.2396582195528	-374.1067270938972	3505.6245132582735	624.2860059144164	-240.13654466433664	3437.8957084875624	573.1553449551569	-44.6271992179159	3695.990474843962	543.6877380177336	201.42622920822336	3749.392589160028	478.3136987518544	438.24485148995564	3691.1430253281624	412.3496275357794	555.1632282814758	3607.4762501541204	423.03460020859757	593.659409051067	3649.716493654078	414.26901425659867	590.8074428436457	3692.44982655021	406.68294524972913	-22.717289042405074	3550.909583575869	833.0898894104944	237.48048471885883	3456.9227129644555	842.3281244094156	486.19681338918974	3434.3098655240074	829.7035734888641	580.3647962882208	3428.417217271423	764.871535488141	603.9022707581639	3434.7422394536393	807.0988174538066	605.3452262202674	3421.780845559066	829.6883744641186
552	9.2	463.0247400571636	3656.2277588362476	551.8111728145743	874.9487294341687	3695.6191186881033	562.1718942691552	1234.7353680806352	3701.627825206391	614.2674665050748	1326.398776776464	3623.9436396933806	611.2673753811838	1289.3242240431116	3614.8206880571856	532.6231327242529	1260.0124415011471	3693.318912838571	625.8527585090696	463.6697377430901	3538.3747160021157	745.3900545266872	875.049488594613	3563.7306395115065	739.7519453080938	1210.711009793273	3590.0103436095746	725.7097060465923	1318.7204140239523	3559.257382530606	675.3029359363125	1274.3756250792983	3479.7709937603527	708.1382594175832	1264.681973905856	3622.3078294212546	722.9681640638279	-127.53795678252011	3542.9245411830207	639.2140086552624	-374.07640179616163	3505.57525914328	624.2494806791092	-240.08307457720326	3437.817321054066	573.0969363429527	-44.61028634718808	3695.97581878581	543.6302084858484	201.37995823525094	3749.2595185547575	478.19232633056396	438.2360524205817	3691.1574793294167	412.21208790003953	555.572937410318	3611.423979320664	419.37038673867795	597.6067078465096	3669.08554698178	418.46001324114576	591.0503459510563	3693.010796516159	406.89011076444905	-18.50529978632093	3546.8908816613502	830.7591082735757	237.49403248834415	3456.8617524288743	842.2871375292475	486.2083607392009	3434.1388580958082	829.6124131861692	580.3522800973893	3428.1073879042956	764.628701253569	604.0841026146805	3434.7475543830633	807.1895139555621	605.4148105187617	3421.8038355036006	829.7852625167368
553	9.216666666666667	463.12951223708154	3656.786443136656	552.0056566551453	874.317822337924	3700.621353000881	554.4274277616603	1232.2138075494036	3707.5690550332397	617.2280905650557	1332.8567348150877	3627.3663668451672	611.7042421246821	1297.1904828631737	3630.910828775665	545.4025393874604	1260.0563526996066	3693.929438745279	626.2385692415199	463.7005304479017	3538.5682200277815	745.4814019787802	874.7955132215643	3563.6325737850284	739.5626003204738	1216.6943504462781	3591.5557888323888	727.3303561727653	1325.880887534054	3566.807543807019	672.6224229301989	1286.0052561869961	3484.6275744917916	710.2967474758241	1264.7496874503106	3622.9280562421836	723.6095184329231	-127.65617757963899	3542.8651140516517	639.1171631987794	-374.1248821277123	3505.725424782942	624.4110273469017	-240.17560247784738	3438.052204088741	573.1303791912429	-44.6359182214732	3695.8902574731524	543.4336576666667	201.40794552087777	3749.540219607911	478.3789528419233	438.31239692114644	3691.3323402430933	412.2633773849222	555.464832317709	3611.7713934892827	419.19531213363325	593.7043274924374	3649.728525144635	414.07154999216664	590.8547624252315	3693.256001770029	406.7351832699675	-19.422663437678967	3531.3854448326256	816.1530248261353	232.83147714182377	3455.5686667024193	841.3917556906617	490.69778470522465	3435.389900819409	830.6151734729219	580.3670714720464	3427.5581427368597	764.4211671585654	604.1083502550251	3434.148869124648	806.908036840917	605.4745204341812	3421.1783065343375	829.6174063330734
